<?xml version="1.0" standalone="no"?>
<!DOCTYPE svg PUBLIC "-//W3C//DTD SVG 20010904//EN"
 "http://www.w3.org/TR/2001/REC-SVG-20010904/DTD/svg10.dtd">
<svg version="1.0" xmlns="http://www.w3.org/2000/svg"
 width="500.000000pt" height="500.000000pt" viewBox="0 0 500.000000 500.000000"
 preserveAspectRatio="xMidYMid meet">
<metadata>
Created by potrace 1.14, written by Peter Selinger 2001-2017
</metadata>
<g transform="translate(0.000000,500.000000) scale(0.100000,-0.100000)"
fill="#000000" stroke="none">
<path d="M1010 4218 c0 -7 -20 -163 -45 -347 -25 -184 -45 -344 -45 -356 0
-15 9 -26 28 -34 33 -14 120 -17 131 -5 5 5 22 53 39 107 83 261 157 328 392
357 226 27 645 -6 701 -55 56 -51 61 -191 56 -1550 -4 -1293 -4 -1305 -57
-1345 -29 -22 -106 -46 -195 -60 -151 -25 -140 -18 -143 -80 -5 -94 -23 -90
328 -74 254 11 354 11 600 0 162 -7 299 -10 303 -6 10 9 11 115 2 129 -3 6
-22 13 -43 16 -85 14 -220 49 -254 66 -40 21 -47 37 -69 160 -16 89 -24 2325
-9 2494 21 239 32 264 133 284 136 28 478 39 627 21 235 -29 309 -96 392 -357
17 -54 34 -102 39 -107 11 -12 98 -9 131 5 18 7 28 19 28 33 0 32 -91 710 -97
716 -2 2 -54 -6 -116 -19 -158 -34 -450 -43 -1362 -43 -867 0 -1237 11 -1365
41 -99 24 -130 26 -130 9z"/>
</g>
</svg>
